<svg viewBox="0 0 24 24" xmlns="http://www.w3.org/2000/svg">
  <path fill="#ffffff" d="M6.938 4.503c.702 0 1.34.06 1.92.188.577.13 1.07.33 1.485.598.414.27.739.623.97 1.061.23.44.345.962.345 1.57 0 .674-.151 1.234-.456 1.68-.304.446-.756.812-1.36 1.1.82.233 1.43.657 1.832 1.27.404.616.606 1.365.606 2.246 0 .664-.127 1.248-.38 1.752-.254.504-.601.924-1.04 1.258-.44.334-.95.586-1.53.756-.581.17-1.19.256-1.83.256H0V4.503h6.938zm-.495 5.82c.44 0 .795-.108 1.065-.326.27-.217.405-.55.405-1 0-.26-.05-.48-.15-.658-.101-.18-.234-.322-.4-.428-.165-.107-.35-.183-.556-.23-.207-.044-.42-.064-.648-.064H3.13v2.706h3.313zm.19 6.063c.252 0 .49-.028.716-.082.226-.055.42-.14.59-.253.168-.114.302-.264.4-.452.1-.188.15-.42.15-.697 0-.55-.153-.96-.458-1.23-.304-.27-.724-.404-1.258-.404H3.13v3.118h3.503zm8.768-.188c.29.283.71.424 1.258.424.39 0 .727-.098 1.01-.296.284-.198.457-.41.52-.636h2.256c-.36 1.118-.913 1.914-1.658 2.39-.745.476-1.645.714-2.7.714-.734 0-1.395-.117-1.984-.352-.59-.234-1.09-.567-1.502-.995-.413-.428-.73-.942-.95-1.54-.22-.6-.33-1.25-.33-1.95 0-.68.11-1.32.336-1.92.224-.6.546-1.115.966-1.547.42-.433.924-.772 1.51-1.018.588-.244 1.234-.366 1.94-.366.79 0 1.49.152 2.1.455.608.3 1.108.715 1.5 1.24.39.524.67 1.124.84 1.798.17.676.22 1.386.15 2.13H14.27c0 .637.165 1.094.448 1.368h.003zm2.276-4.24c-.23-.252-.603-.378-1.12-.378-.332 0-.606.055-.824.167-.218.11-.393.248-.523.41-.13.163-.22.34-.272.527-.05.19-.08.36-.09.522h3.347c-.06-.565-.29-.998-.518-1.248zm-4.016-5.034h4.826V5.66h-4.826v1.264z"/>
</svg>
