<svg xmlns="http://www.w3.org/2000/svg" viewBox="0 0 24 24"><path fill="#ffffff" d="M12 2C6.48 2 2 6.48 2 12s4.48 10 10 10 10-4.48 10-10S17.52 2 12 2zm6.6 5.35a8.08 8.08 0 0 1 1.82 4.51c-1.06-.22-2.13-.33-3.2-.33-.8 0-1.6.07-2.38.2-.27-.64-.55-1.27-.85-1.88a18.38 18.38 0 0 0 4.61-2.5zm-1.3-1.27a16.5 16.5 0 0 1-4.19 2.2 28.4 28.4 0 0 0-2.96-4.17A8.1 8.1 0 0 1 17.3 6.08zM10.15 4.26a26.7 26.7 0 0 1 2.97 4.1c-2.04.52-4.2.77-6.38.77H4.16a8.11 8.11 0 0 1 5.99-4.87zM3.92 10.63h.82c2.42 0 4.82-.29 7.09-.87.18.37.35.74.51 1.12-2.42.66-4.57 2.04-6.23 3.93a8.08 8.08 0 0 1-2.19-4.18zm2.35 6.34c1.5-1.72 3.46-3 5.67-3.61a21.6 21.6 0 0 1 .79 5.49 8.1 8.1 0 0 1-6.46-1.88zm8.4 1.5c-.06-1.88-.36-3.7-.87-5.4.72-.11 1.46-.17 2.2-.17.93 0 1.85.1 2.75.28a8.12 8.12 0 0 1-4.08 5.29z"/></svg>
