<svg xmlns="http://www.w3.org/2000/svg" viewBox="0 0 24 24"><path fill="#ffffff" d="M19.95 10.23C19.95 6.17 15.85 2.86 12 2.86S4.05 6.17 4.05 10.23c0 3.64 3.23 6.68 7.59 7.26.3.06.7.2.8.45.09.23.06.58.03.82l-.13.78c-.04.23-.19.92.8.5 1-.41 5.41-3.18 7.38-5.45 1.36-1.5 2.03-3 2.03-4.36zm-9.6 2.2H8.5c-.34 0-.62-.28-.62-.62V8.04c0-.34.28-.62.62-.62s.62.28.62.62v3.15h1.23c.34 0 .62.28.62.62s-.28.62-.62.62zm1.62 0c-.34 0-.62-.28-.62-.62V8.04c0-.34.28-.62.62-.62s.62.28.62.62v3.77c0 .34-.28.62-.62.62zm4.5 0h-1.85c-.34 0-.62-.28-.62-.62V8.04c0-.34.28-.62.62-.62s.62.28.62.62v3.15h1.23c.34 0 .62.28.62.62s-.28.62-.62.62zm-2.82-1.5V8.04c0-.34.28-.62.62-.62s.62.28.62.62v1.23l1.1-1.46c.22-.29.63-.35.92-.13.29.22.35.63.13.92l-.78 1.04.91 1.2c.21.28.16.68-.12.89-.1.08-.23.12-.35.12-.2 0-.39-.09-.52-.25l-.91-1.2v.82c0 .34-.28.62-.62.62s-.62-.28-.62-.62l.12-.02z"/></svg>
