<svg xmlns="http://www.w3.org/2000/svg" viewBox="0 0 24 24"><path fill="#ffffff" d="M12.555 17.025c-.467-1.092-1.007-2.172-2.268-2.172-.3 0-.6.061-.855.196l-.42-.9c.612-.42 1.5-.689 2.4-.689 1.74 0 2.74.87 3.447 2.097A6.039 6.039 0 0 0 18.06 12C18.06 8.664 15.36 6 12 6S5.94 8.664 5.94 12s2.7 6 6.06 6c.195 0 .39-.015.555-.03v-.945zM22 17.744h-1.664c.053-.24.083-.489.083-.744A8.01 8.01 0 0 0 12 9a8.01 8.01 0 0 0-8 8 8.01 8.01 0 0 0 8 8c2.368 0 4.488-1.025 5.963-2.651.796.795 1.84 1.318 3.037 1.318V17.744z"/></svg>
