<svg xmlns="http://www.w3.org/2000/svg" viewBox="0 0 24 24" fill="#000000"><path d="M12.166.006C7.456-.026 3.25 2.618 1.25 6.72c-.9 1.85-1.16 3.79-1.25 5.73v.7c.04 1.14.1 2.39.56 3.46-.23.12-.46.27-.65.44-.48.41-.73.93-.65 1.45.16 1.01 1.36 1.61 2.22 1.85.13.04.27.08.42.13.44.15.91.33 1.17.71.41.59.61 1.3.93 1.94.38.74 1.01 1.15 1.79 1.15.4 0 .82-.11 1.29-.34.52-.25 1.02-.37 1.5-.37.54 0 1.01.15 1.49.47.63.42 1.17.62 1.7.62.75 0 1.38-.37 1.82-1.07.31-.49.53-1.08.84-1.58.22-.36.65-.55 1.07-.69.14-.05.28-.09.41-.13.86-.24 2.06-.84 2.22-1.85.08-.52-.17-1.04-.65-1.45-.19-.17-.42-.32-.66-.44.47-1.07.52-2.32.56-3.46v-.7c-.09-1.95-.35-3.87-1.25-5.73C21.05 2.62 16.87-.02 12.17.006h-.004z"/></svg>
