<svg xmlns="http://www.w3.org/2000/svg" viewBox="0 0 24 24"><path fill="#ffffff" d="M1.175 12.225c-.046 0-.083.037-.088.083l-.562 4.224.562 4.155c.005.046.042.08.088.08.045 0 .082-.034.088-.08l.638-4.155-.638-4.224c-.006-.046-.043-.083-.088-.083zm1.808-.711c-.054 0-.097.042-.103.095l-.48 4.94.48 4.808c.006.053.049.094.103.094.053 0 .097-.041.103-.094l.545-4.808-.545-4.94c-.006-.053-.05-.095-.103-.095zm1.887-.248c-.062 0-.112.05-.117.112l-.4 5.188.4 4.741c.005.062.055.11.117.11.061 0 .111-.048.117-.11l.454-4.741-.454-5.188c-.006-.062-.056-.112-.117-.112zm1.916-.203c-.071 0-.128.057-.133.127l-.32 5.391.32 4.642c.005.07.062.127.133.127.07 0 .128-.057.133-.127l.363-4.642-.363-5.391c-.005-.07-.063-.127-.133-.127zm1.936-.078c-.079 0-.143.064-.148.143l-.24 5.469.24 4.518c.005.079.069.143.148.143.08 0 .144-.064.148-.143l.272-4.518-.272-5.469c-.004-.079-.068-.143-.148-.143zm1.946-.002c-.088 0-.16.071-.164.158l-.161 5.471.161 4.396c.004.087.076.158.164.158.089 0 .16-.071.164-.158l.182-4.396-.182-5.471c-.004-.087-.075-.158-.164-.158zm1.95.17c-.096 0-.174.078-.178.174l-.081 5.299.081 4.269c.004.096.082.174.178.174.097 0 .174-.078.178-.174l.091-4.269-.091-5.299c-.004-.096-.081-.174-.178-.174zm1.947-.457c-.105 0-.19.085-.194.19l0 5.756.194 4.139c.004.105.089.19.194.19.106 0 .19-.085.194-.19l.219-4.139-.219-5.756c-.004-.105-.088-.19-.194-.19zm1.942-.614c-.114 0-.206.092-.209.206l.081 6.37-.081 4.009c.003.114.095.206.209.206.115 0 .207-.092.209-.206l.091-4.009-.091-6.37c-.002-.114-.094-.206-.209-.206zm2.3 1.47c-.12 0-.218.097-.222.217l0 5.116.222 3.877c.004.12.102.217.222.217.122 0 .22-.097.222-.217l.251-3.877-.251-5.116c-.002-.12-.1-.217-.222-.217zm2.008-1.01c-1.405 0-2.531 1.127-2.531 2.531v7.469c0 .417.34.754.757.754h6.031c.417 0 .754-.337.754-.754v-4.938c0-2.795-2.267-5.062-5.011-5.062z"/></svg>
