<svg xmlns="http://www.w3.org/2000/svg" viewBox="0 0 192 192" fill="white"><path d="M141.537 88.988a66.667 66.667 0 0 0-2.518-1.143c-1.482-27.307-16.403-42.94-41.457-43.1h-.34c-14.986 0-27.449 6.396-35.12 18.036l13.779 9.452c5.73-8.695 14.724-10.548 21.348-10.548h.229c8.249.053 14.474 2.452 18.503 7.129 2.932 3.405 4.893 8.111 5.864 14.05-7.314-1.243-15.224-1.626-23.68-1.14-23.82 1.371-39.134 15.264-38.105 34.568.522 9.792 5.4 18.216 13.735 23.719 7.047 4.652 16.124 6.927 25.557 6.412 12.458-.683 22.231-5.436 29.049-14.127 5.178-6.6 8.453-15.153 9.899-25.93 5.937 3.583 10.337 8.298 12.767 13.966 4.132 9.635 4.373 25.468-8.546 38.376-11.319 11.308-24.925 16.2-45.488 16.351-22.809-.169-40.06-7.484-51.275-21.742C35.236 139.966 29.808 120.682 29.605 96c.203-24.682 5.63-43.966 16.133-57.317C56.954 24.425 74.206 17.11 97.015 16.94c22.975.17 40.526 7.52 52.171 21.847 5.71 7.026 9.986 15.908 12.787 26.396l16.137-4.304c-3.412-12.586-8.766-23.441-16.036-32.411C147.844 9.781 126.113.294 97.1.007h-.199C68.001.294 46.487 9.798 31.95 28.24 18.785 44.911 12.01 68.376 11.804 96.009l-.001.072.001.072c.205 27.633 6.98 51.098 20.145 67.769C46.487 182.202 68 191.706 96.9 191.993h.2c26.106-.264 44.428-7.047 59.522-22.139 19.715-19.702 19.117-44.39 12.636-59.548-4.462-10.403-13.033-18.811-27.72-23.318Zm-48.32 47.43c-10.438.588-21.286-4.098-21.82-14.135-.401-7.544 5.34-15.959 22.574-16.977 1.976-.114 3.918-.169 5.824-.169 6.404 0 12.4.619 17.868 1.812-2.032 25.357-14.654 28.871-24.446 29.47z"/></svg>
