<svg xmlns="http://www.w3.org/2000/svg" viewBox="0 0 24 24"><path fill="#ffffff" d="M11.4 1.008C8.48.88 5.26 1.763 3.003 3.996 1.2 5.8.561 8.356.504 10.955c-.056 2.6.454 5.317 2.113 7.157.592.642 1.38 1.163 2.313 1.49v3.27c0 .127.151.196.247.113l3.13-2.63c.612.083 1.247.13 1.897.138 1.126.015 2.254-.108 3.338-.378.007-1.38.5-2.742 1.43-3.79.007-.008.014-.015.02-.022.007-.008.015-.016.023-.023.007-.007.014-.015.022-.022.007-.008.015-.015.022-.022a6.186 6.186 0 0 1 4.327-1.797h.019a6.21 6.21 0 0 1 .897.065c.135-.79.198-1.6.186-2.41-.11-3.24-1.414-5.935-3.44-7.37a9.55 9.55 0 0 0-5.65-1.716zm.39 2.394c.29-.02.585-.025.88-.014 1.58.06 3.04.593 4.055 1.456 1.458 1.234 2.3 3.253 2.386 5.668.016.454.004.907-.038 1.355a6.254 6.254 0 0 0-1.07-.092 6.19 6.19 0 0 0-4.344 1.797l-.006.006-.006.006-.007.007-.006.006a6.205 6.205 0 0 0-1.55 2.697c-.417.046-.836.066-1.255.06-.585-.008-1.166-.063-1.73-.161l-.274.23-1.505 1.264v-1.82l-.317-.114c-.79-.286-1.45-.708-1.917-1.224-1.33-1.466-1.77-3.797-1.72-6.031.048-2.24.598-4.34 1.985-5.727 1.608-1.61 4.12-2.336 6.439-2.372zm-2.18 2.27c-.2-.006-.418.046-.621.17a4.09 4.09 0 0 0-.412.3c-.247.214-.543.58-.57.998-.028.42.155.836.447 1.27.292.435.722.906 1.23 1.38.508.472 1.035.87 1.555 1.144.519.274 1.027.423 1.477.38.449-.043.768-.259.975-.465a3.1 3.1 0 0 0 .373-.506c.224-.4.218-.863-.073-1.13l-.874-.786c-.265-.239-.661-.195-.908.027l-.295.265c-.208.188-.528.174-.728-.038l-.754-.77c-.2-.213-.214-.533-.026-.74l.26-.29c.22-.248.263-.642.028-.91l-.79-.875c-.159-.175-.366-.24-.594-.224zM18.23 15.87a4.697 4.697 0 0 0-4.701 4.695A4.697 4.697 0 0 0 18.23 25a4.697 4.697 0 0 0 4.7-4.695 4.697 4.697 0 0 0-4.7-4.435zm0 1.408a3.29 3.29 0 0 1 3.289 3.287 3.29 3.29 0 0 1-3.29 3.288 3.29 3.29 0 0 1-3.288-3.288 3.29 3.29 0 0 1 3.289-3.287zm-.704 1.056v4.7h1.408v-4.7z"/></svg>
